<svg width="51" height="24" viewBox="0 0 51 24" fill="none" xmlns="http://www.w3.org/2000/svg">
<g clip-path="url(#clip0_352_788)">
<path d="M1.65771 21.845C1.57877 21.7818 1.49983 21.7345 1.42089 21.7029C1.34195 21.6713 1.26564 21.6555 1.19197 21.6555C1.09724 21.6555 1.02093 21.6766 0.963045 21.7213C0.905157 21.766 0.873582 21.8239 0.873582 21.895C0.873582 21.945 0.889369 21.9844 0.918314 22.016C0.947258 22.0476 0.986727 22.0765 1.03409 22.1002C1.08145 22.1239 1.13671 22.1449 1.19723 22.1607C1.25775 22.1791 1.31827 22.1976 1.37616 22.216C1.61297 22.2949 1.78664 22.4002 1.89715 22.5317C2.00767 22.6633 2.06292 22.837 2.06292 23.0475C2.06292 23.1896 2.03924 23.3211 1.99188 23.4369C1.94452 23.5527 1.87347 23.6527 1.78138 23.7342C1.68928 23.8158 1.57614 23.8816 1.44194 23.9263C1.30774 23.971 1.15513 23.9947 0.984096 23.9947C0.631503 23.9947 0.305223 23.8895 0.00262451 23.679L0.313117 23.0948C0.421 23.1922 0.528883 23.2632 0.634134 23.3106C0.739386 23.358 0.844637 23.3816 0.949889 23.3816C1.0683 23.3816 1.15776 23.3553 1.21565 23.3001C1.27354 23.2448 1.30248 23.1843 1.30248 23.1159C1.30248 23.0738 1.29459 23.0369 1.28143 23.0054C1.26564 22.9738 1.24196 22.9448 1.20776 22.9212C1.17355 22.8949 1.12882 22.8712 1.07356 22.8501C1.0183 22.8291 0.949889 22.8028 0.87095 22.7764C0.776224 22.7475 0.684129 22.7133 0.594665 22.6791C0.505201 22.6449 0.423631 22.5949 0.352586 22.537C0.281541 22.4791 0.226284 22.4028 0.181552 22.3133C0.139452 22.2239 0.11577 22.1081 0.11577 21.9713C0.11577 21.8344 0.139452 21.7081 0.184184 21.595C0.228915 21.4818 0.294698 21.3871 0.376268 21.3056C0.457838 21.2266 0.560458 21.1635 0.678866 21.1187C0.799905 21.074 0.93147 21.0529 1.08145 21.0529C1.22091 21.0529 1.363 21.0714 1.51562 21.1108C1.66823 21.1503 1.81032 21.2056 1.94978 21.2792L1.66034 21.845H1.65771Z" fill="white"/>
<path d="M4.78366 23.4369H3.74693L3.58116 23.921H2.80756L3.8706 21.1292H4.66262L5.72566 23.921H4.95206L4.78629 23.4369H4.78366ZM4.59157 22.8843L4.26529 21.9555L3.93901 22.8843H4.59157Z" fill="white"/>
<path d="M7.32548 21.1292V23.308H8.19644V23.9237H6.59924V21.1319H7.32548V21.1292Z" fill="white"/>
<path d="M10.1831 21.745V23.9237H9.45686V21.745H8.85956V21.1292H10.7778V21.745H10.1805H10.1831Z" fill="white"/>
<path d="M14.1985 21.1292V23.308H15.0694V23.9237H13.4722V21.1319H14.1985V21.1292Z" fill="white"/>
<path d="M16.7245 21.1292V22.6475C16.7245 22.7291 16.7271 22.8133 16.735 22.8975C16.7402 22.9817 16.7587 23.0606 16.7902 23.129C16.8218 23.1974 16.8692 23.2553 16.9376 23.2974C17.0034 23.3395 17.0981 23.3632 17.2191 23.3632C17.3402 23.3632 17.4323 23.3422 17.4981 23.2974C17.5638 23.2553 17.6112 23.1974 17.6454 23.129C17.6796 23.0606 17.6954 22.9817 17.7033 22.8975C17.7086 22.8133 17.7138 22.7291 17.7138 22.6475V21.1292H18.4348V22.7475C18.4348 23.1816 18.3348 23.5 18.1375 23.7C17.9375 23.9 17.6322 24 17.2218 24C16.8113 24 16.5034 23.9 16.3034 23.7C16.1035 23.5 16.0035 23.1843 16.0035 22.7475V21.1292H16.7297H16.7245Z" fill="white"/>
<path d="M21.8923 23.921H20.9898L20.2978 22.8475V23.921H19.5715V21.1292H20.7004C20.8556 21.1292 20.9924 21.1529 21.1082 21.1977C21.224 21.2424 21.3187 21.3055 21.395 21.3845C21.4713 21.4634 21.5266 21.5555 21.5661 21.6581C21.6055 21.7608 21.6239 21.8739 21.6239 21.9923C21.6239 22.2054 21.5739 22.3765 21.4713 22.508C21.3687 22.6396 21.2187 22.7291 21.0187 22.7764L21.895 23.921H21.8923ZM20.2951 22.3765H20.432C20.5741 22.3765 20.6846 22.3475 20.7609 22.287C20.8372 22.2265 20.8767 22.1423 20.8767 22.0318C20.8767 21.9213 20.8372 21.8344 20.7609 21.7765C20.6846 21.716 20.5741 21.6871 20.432 21.6871H20.2951V22.3765Z" fill="white"/>
<path d="M24.342 21.745H23.479V22.2107H24.2947V22.8264H23.479V23.308H24.342V23.9237H22.7527V21.1319H24.342V21.7476V21.745Z" fill="white"/>
<path d="M26.9523 21.845C26.8734 21.7818 26.7944 21.7345 26.7155 21.7029C26.6366 21.6713 26.5603 21.6555 26.4866 21.6555C26.3919 21.6555 26.3156 21.6766 26.2577 21.7213C26.1998 21.766 26.1682 21.8239 26.1682 21.895C26.1682 21.945 26.184 21.9844 26.2129 22.016C26.2419 22.0476 26.2813 22.0765 26.3287 22.1002C26.3761 22.1239 26.4313 22.1449 26.4918 22.1607C26.5524 22.1791 26.6129 22.1976 26.6708 22.216C26.9076 22.2949 27.0813 22.4002 27.1918 22.5317C27.3023 22.6633 27.3575 22.837 27.3575 23.0475C27.3575 23.1896 27.3339 23.3211 27.2865 23.4369C27.2391 23.5527 27.1681 23.6527 27.076 23.7342C26.9839 23.8158 26.8708 23.8816 26.7366 23.9263C26.6024 23.971 26.4497 23.9947 26.2787 23.9947C25.9261 23.9947 25.5998 23.8895 25.2972 23.679L25.6077 23.0948C25.7156 23.1922 25.8235 23.2632 25.9288 23.3106C26.034 23.358 26.1393 23.3816 26.2445 23.3816C26.3629 23.3816 26.4524 23.3553 26.5103 23.3001C26.5682 23.2448 26.5971 23.1843 26.5971 23.1159C26.5971 23.0738 26.5892 23.0369 26.576 23.0054C26.5603 22.9738 26.5366 22.9448 26.5024 22.9212C26.4682 22.8949 26.4234 22.8712 26.3682 22.8501C26.3129 22.8291 26.2445 22.8028 26.1656 22.7764C26.0708 22.7475 25.9787 22.7133 25.8893 22.6791C25.7998 22.6449 25.7182 22.5949 25.6472 22.537C25.5762 22.4791 25.5209 22.4028 25.4762 22.3133C25.4341 22.2239 25.4104 22.1081 25.4104 21.9713C25.4104 21.8344 25.4341 21.7081 25.4788 21.595C25.5235 21.4818 25.5893 21.3871 25.6709 21.3056C25.7525 21.2266 25.8551 21.1635 25.9735 21.1187C26.0945 21.074 26.2261 21.0529 26.3761 21.0529C26.5155 21.0529 26.6576 21.0714 26.8102 21.1108C26.9628 21.1503 27.1049 21.2056 27.2444 21.2792L26.955 21.845H26.9523Z" fill="white"/>
<path d="M30.9071 21.1292V23.308H31.7781V23.9237H30.1809V21.1319H30.9071V21.1292Z" fill="white"/>
<path d="M33.4331 21.1292V23.921H32.7069V21.1292H33.4331Z" fill="white"/>
<path d="M34.5725 21.1292H35.654C35.9118 21.1292 36.1066 21.1898 36.2381 21.3134C36.3723 21.4371 36.4381 21.616 36.4381 21.8476C36.4381 21.987 36.4118 22.1055 36.3618 22.1976C36.3118 22.2896 36.2329 22.3686 36.1302 22.4317C36.2329 22.4528 36.3223 22.4817 36.396 22.5212C36.4697 22.5607 36.5276 22.6107 36.5749 22.6712C36.6197 22.7317 36.6539 22.7975 36.6723 22.8712C36.6933 22.9448 36.7012 23.0238 36.7012 23.108C36.7012 23.2395 36.6775 23.3553 36.6328 23.4553C36.5881 23.5553 36.5223 23.6421 36.4407 23.7105C36.3592 23.779 36.2565 23.8316 36.1381 23.8658C36.0197 23.9 35.8855 23.9184 35.7382 23.9184H34.5725V21.1266V21.1292ZM35.2987 22.2265H35.4329C35.6592 22.2265 35.7724 22.137 35.7724 21.9555C35.7724 21.7739 35.6592 21.6845 35.4329 21.6845H35.2987V22.2265ZM35.2987 23.3606H35.4593C35.6408 23.3606 35.7724 23.3369 35.8513 23.2895C35.9303 23.2422 35.9697 23.1685 35.9697 23.0632C35.9697 22.958 35.9303 22.8843 35.8513 22.837C35.7724 22.7896 35.6408 22.7659 35.4593 22.7659H35.2987V23.358V23.3606Z" fill="white"/>
<path d="M40.014 23.921H39.1115L38.4195 22.8475V23.921H37.6932V21.1292H38.8221C38.9773 21.1292 39.1141 21.1529 39.2299 21.1977C39.3457 21.2424 39.4404 21.3055 39.5167 21.3845C39.593 21.4634 39.6483 21.5555 39.6878 21.6581C39.7272 21.7608 39.7456 21.8739 39.7456 21.9923C39.7456 22.2054 39.6956 22.3765 39.593 22.508C39.4904 22.6396 39.3404 22.7291 39.1404 22.7764L40.0167 23.921H40.014ZM38.4168 22.3765H38.5537C38.6958 22.3765 38.8063 22.3475 38.8826 22.287C38.9589 22.2265 38.9984 22.1423 38.9984 22.0318C38.9984 21.9213 38.9589 21.8344 38.8826 21.7765C38.8063 21.716 38.6958 21.6871 38.5537 21.6871H38.4168V22.3765Z" fill="white"/>
<path d="M42.5822 23.4369H41.5454L41.3797 23.921H40.6061L41.6691 21.1292H42.4611L43.5242 23.921H42.7506L42.5848 23.4369H42.5822ZM42.3901 22.8843L42.0638 21.9555L41.7375 22.8843H42.3901Z" fill="white"/>
<path d="M46.7186 23.921H45.816L45.124 22.8475V23.921H44.3978V21.1292H45.5266C45.6818 21.1292 45.8187 21.1529 45.9344 21.1977C46.0502 21.2424 46.1449 21.3055 46.2213 21.3845C46.2976 21.4634 46.3528 21.5555 46.3923 21.6581C46.4318 21.7608 46.4502 21.8739 46.4502 21.9923C46.4502 22.2054 46.4002 22.3765 46.2976 22.508C46.1949 22.6396 46.045 22.7291 45.845 22.7764L46.7212 23.921H46.7186ZM45.1214 22.3765H45.2582C45.4003 22.3765 45.5108 22.3475 45.5871 22.287C45.6634 22.2265 45.7029 22.1423 45.7029 22.0318C45.7029 21.9213 45.6634 21.8344 45.5871 21.7765C45.5108 21.716 45.4003 21.6871 45.2582 21.6871H45.1214V22.3765Z" fill="white"/>
<path d="M48.2526 22.5817L47.2343 21.1292H48.1L48.6184 21.8923L49.1341 21.1292H49.9998L48.9789 22.5817V23.921H48.2526V22.5817Z" fill="white"/>
<path d="M9.73053 4.62845C9.27005 4.2548 8.80694 3.97589 8.34647 3.79433C7.88599 3.6154 7.43867 3.5233 7.00451 3.5233C6.4572 3.5233 6.00988 3.65224 5.66255 3.91274C5.31522 4.17323 5.14419 4.51004 5.14419 4.92841C5.14419 5.21786 5.23102 5.45467 5.40468 5.64149C5.57835 5.82832 5.80464 5.99146 6.08619 6.12828C6.36774 6.26511 6.68349 6.38352 7.03872 6.48614C7.39131 6.58613 7.74127 6.69664 8.0886 6.80979C9.47266 7.27026 10.4857 7.88862 11.1277 8.65958C11.7698 9.43055 12.0908 10.4383 12.0908 11.6777C12.0908 12.5144 11.9513 13.2722 11.6698 13.9485C11.3882 14.6274 10.9778 15.2062 10.4357 15.6904C9.89367 16.1745 9.23058 16.5482 8.44646 16.814C7.6597 17.0797 6.77032 17.2139 5.7757 17.2139C3.71276 17.2139 1.80245 16.6008 0.0421143 15.3746L1.86034 11.9566C2.49448 12.5197 3.12072 12.9381 3.74171 13.2117C4.36269 13.4854 4.97578 13.6222 5.58098 13.6222C6.27301 13.6222 6.78874 13.4643 7.12818 13.1459C7.46762 12.8302 7.63602 12.4671 7.63602 12.0645C7.63602 11.8198 7.59392 11.6066 7.50709 11.4277C7.42025 11.2488 7.27553 11.0804 7.07555 10.9304C6.87294 10.7778 6.60982 10.6383 6.28617 10.5094C5.96252 10.3804 5.56782 10.2357 5.10735 10.0778C4.56004 9.90418 4.02063 9.71473 3.49437 9.50423C2.96811 9.29636 2.49974 9.01744 2.08926 8.67011C1.67878 8.32278 1.34723 7.88862 1.09463 7.36236C0.842027 6.8361 0.715725 6.17038 0.715725 5.36258C0.715725 4.55477 0.84992 3.82327 1.11568 3.16545C1.38144 2.51026 1.75772 1.94716 2.23924 1.47879C2.7234 1.01042 3.31281 0.644673 4.01273 0.386806C4.71266 0.126309 5.49415 -0.00262451 6.35984 -0.00262451C7.16765 -0.00262451 8.01229 0.110521 8.89114 0.331549C9.77 0.555209 10.6146 0.88412 11.4224 1.31565L9.73579 4.62582L9.73053 4.62845Z" fill="white"/>
<path d="M25.4367 0.455231V13.1749H30.5204V16.7666H21.1977V0.455231H25.4367Z" fill="white"/>
<path d="M45.2292 0.455231V13.1749H50.3129V16.7666H40.9902V0.455231H45.2292Z" fill="white"/>
<path d="M17.0677 4.7957L14.3593 12.2412L14.8538 12.4211L17.5623 4.9756L17.0677 4.7957Z" fill="white"/>
<path d="M36.8588 4.79618L34.1503 12.2417L34.6449 12.4216L37.3533 4.97609L36.8588 4.79618Z" fill="white"/>
</g>
<defs>
<clipPath id="clip0_352_788">
<rect width="50.3129" height="24" fill="white"/>
</clipPath>
</defs>
</svg>
