<svg width="55" height="24" viewBox="0 0 55 24" fill="none" xmlns="http://www.w3.org/2000/svg">
<g clip-path="url(#clip0_380_1202)">
<path d="M10.2985 4.91855C9.80917 4.52148 9.31703 4.22508 8.82769 4.03215C8.33835 3.842 7.863 3.74413 7.40162 3.74413C6.82 3.74413 6.34465 3.88115 5.97554 4.15798C5.60644 4.4348 5.42469 4.79272 5.42469 5.23732C5.42469 5.5449 5.51696 5.79656 5.70151 5.9951C5.88607 6.19363 6.12654 6.36699 6.42574 6.5124C6.72493 6.6578 7.06048 6.78363 7.43797 6.89268C7.81266 6.99894 8.18456 7.11638 8.55366 7.23662C10.0245 7.72596 11.101 8.38307 11.7833 9.20236C12.4656 10.0217 12.8067 11.0926 12.8067 12.4096C12.8067 13.2988 12.6585 14.1041 12.3593 14.8228C12.0601 15.5442 11.6239 16.1594 11.0479 16.6739C10.4719 17.1884 9.76723 17.5854 8.93395 17.8679C8.09788 18.1503 7.15276 18.2929 6.09578 18.2929C3.90354 18.2929 1.87348 17.6414 0.00280762 16.3383L1.935 12.706C2.60889 13.3044 3.27439 13.749 3.9343 14.0398C4.59421 14.3306 5.24573 14.476 5.88886 14.476C6.62427 14.476 7.17233 14.3083 7.53304 13.9699C7.89376 13.6344 8.07271 13.2485 8.07271 12.8207C8.07271 12.5606 8.02797 12.3341 7.9357 12.144C7.84342 11.9538 7.68963 11.7749 7.47712 11.6155C7.26181 11.4533 6.98219 11.3051 6.63825 11.1681C6.29431 11.0311 5.87488 10.8773 5.38554 10.7095C4.80393 10.525 4.2307 10.3237 3.67146 10.1C3.11221 9.87905 2.61448 9.58265 2.17827 9.21355C1.74206 8.84445 1.38974 8.38307 1.1213 7.82383C0.85286 7.26458 0.718641 6.55714 0.718641 5.69869C0.718641 4.84025 0.861249 4.0629 1.14367 3.36385C1.42609 2.66759 1.82595 2.0692 2.33766 1.57147C2.85216 1.07374 3.47852 0.685064 4.22231 0.411034C4.96611 0.134207 5.79659 -0.00280762 6.71654 -0.00280762C7.57499 -0.00280762 8.47257 0.11743 9.40651 0.352313C10.3405 0.589992 11.238 0.93952 12.0965 1.3981L10.3041 4.91575L10.2985 4.91855Z" fill="white"/>
<path d="M52.1664 4.91855C51.677 4.52148 51.1849 4.22508 50.6956 4.03215C50.2062 3.842 49.7309 3.74413 49.2695 3.74413C48.6879 3.74413 48.2125 3.88115 47.8434 4.15798C47.4743 4.4348 47.2925 4.79272 47.2925 5.23732C47.2925 5.5449 47.3848 5.79656 47.5694 5.9951C47.7539 6.19363 47.9944 6.36699 48.2936 6.5124C48.5928 6.6578 48.9283 6.78363 49.3058 6.89268C49.6805 6.99894 50.0524 7.11638 50.4215 7.23662C51.8923 7.72596 52.9689 8.38307 53.6512 9.20236C54.3334 10.0217 54.6746 11.0926 54.6746 12.4096C54.6746 13.2988 54.5264 14.1041 54.2272 14.8228C53.928 15.5442 53.4918 16.1594 52.9158 16.6739C52.3397 17.1884 51.6351 17.5854 50.8018 17.8679C49.9657 18.1503 49.0206 18.2929 47.9636 18.2929C45.7714 18.2929 43.7413 17.6414 41.8707 16.3383L43.8029 12.706C44.4767 13.3044 45.1422 13.749 45.8022 14.0398C46.4621 14.3306 47.1136 14.476 47.7567 14.476C48.4921 14.476 49.0402 14.3083 49.4009 13.9699C49.7616 13.6344 49.9406 13.2485 49.9406 12.8207C49.9406 12.5606 49.8958 12.3341 49.8036 12.144C49.7113 11.9538 49.5575 11.7749 49.345 11.6155C49.1297 11.4533 48.85 11.3051 48.5061 11.1681C48.1622 11.0311 47.7427 10.8773 47.2534 10.7095C46.6718 10.525 46.0986 10.3237 45.5393 10.1C44.9801 9.87905 44.4823 9.58265 44.0461 9.21355C43.6099 8.84445 43.2576 8.38307 42.9892 7.82383C42.7207 7.26458 42.5865 6.55714 42.5865 5.69869C42.5865 4.84025 42.7291 4.0629 43.0115 3.36385C43.2939 2.66759 43.6938 2.0692 44.2055 1.57147C44.72 1.07374 45.3464 0.685064 46.0902 0.411034C46.834 0.134207 47.6644 -0.00280762 48.5844 -0.00280762C49.4428 -0.00280762 50.3404 0.11743 51.2744 0.352313C52.2083 0.589992 53.1059 0.93952 53.9643 1.3981L52.172 4.91575L52.1664 4.91855Z" fill="white"/>
<path d="M18.2985 5.94196L15.4408 12.3565" stroke="white" stroke-width="0.75" stroke-miterlimit="10"/>
<path d="M39.231 5.94196L36.3761 12.3565" stroke="white" stroke-width="0.75" stroke-miterlimit="10"/>
<path d="M27.4478 0.483734V14.0007H32.8501V17.8175H22.9431V0.483734H27.4478Z" fill="white"/>
<path d="M1.87909 21.9C1.80079 21.8385 1.72529 21.791 1.647 21.7602C1.5687 21.7295 1.496 21.7155 1.4233 21.7155C1.33103 21.7155 1.25832 21.7378 1.1996 21.7798C1.14088 21.8245 1.11292 21.8805 1.11292 21.9504C1.11292 21.9979 1.1269 22.037 1.15766 22.0706C1.18562 22.1014 1.22477 22.1293 1.2723 22.1517C1.31984 22.1741 1.37297 22.1936 1.43169 22.2104C1.49041 22.2272 1.54913 22.244 1.60506 22.2635C1.83714 22.3418 2.00492 22.4425 2.11117 22.5711C2.21743 22.6997 2.27056 22.8675 2.27056 23.0744C2.27056 23.2142 2.24819 23.3401 2.20065 23.4519C2.15312 23.5638 2.08601 23.6616 1.99373 23.7427C1.90146 23.8238 1.7924 23.8853 1.66098 23.9301C1.52956 23.9748 1.38136 23.9972 1.21638 23.9972C0.872444 23.9972 0.553674 23.8937 0.260071 23.6896L0.562063 23.1192C0.66832 23.2115 0.77178 23.2814 0.87524 23.3289C0.978701 23.3736 1.07936 23.3988 1.18283 23.3988C1.29747 23.3988 1.38415 23.3736 1.44008 23.3205C1.496 23.2674 1.52396 23.2087 1.52396 23.1415C1.52396 23.0996 1.51558 23.066 1.50159 23.0353C1.48761 23.0045 1.46245 22.9766 1.42889 22.9514C1.39534 22.9262 1.3506 22.9039 1.29747 22.8815C1.24434 22.8591 1.17723 22.8368 1.10173 22.8088C1.00946 22.7808 0.91998 22.7473 0.833297 22.7137C0.746614 22.6802 0.66832 22.6326 0.598414 22.5739C0.528508 22.5152 0.47538 22.4425 0.433437 22.3558C0.391493 22.2691 0.369124 22.1573 0.369124 22.0231C0.369124 21.8888 0.391493 21.7658 0.436233 21.6568C0.480973 21.5477 0.54249 21.4526 0.62358 21.3743C0.704671 21.296 0.802538 21.2345 0.91998 21.1926C1.03742 21.1506 1.16605 21.1283 1.31145 21.1283C1.44567 21.1283 1.58548 21.1478 1.73368 21.1842C1.87909 21.2205 2.02169 21.2765 2.15591 21.3492L1.87349 21.9H1.87909Z" fill="white"/>
<path d="M5.10311 23.4519H4.09368L3.93149 23.9245H3.17651L4.21112 21.2066H4.98288L6.01748 23.9245H5.2625L5.10032 23.4519H5.10311ZM4.91577 22.9151L4.59979 22.0091L4.28382 22.9151H4.91856H4.91577Z" fill="white"/>
<path d="M7.75676 21.2066V23.3261H8.60402V23.9245H7.04932V21.2066H7.75676Z" fill="white"/>
<path d="M10.7208 21.805V23.9245H10.0133V21.805H9.4317V21.2066H11.2996V21.805H10.718H10.7208Z" fill="white"/>
<path d="M14.9906 21.2066V23.3261H15.8378V23.9245H14.2831V21.2066H14.9906Z" fill="white"/>
<path d="M17.6302 21.2066V22.6858C17.6302 22.7641 17.633 22.8452 17.6386 22.929C17.6442 23.0129 17.6638 23.0884 17.6917 23.1555C17.7225 23.2227 17.77 23.2786 17.8343 23.3205C17.8987 23.3625 17.9909 23.3848 18.1084 23.3848C18.2258 23.3848 18.3181 23.3625 18.3796 23.3205C18.4439 23.2786 18.4915 23.2227 18.5222 23.1555C18.553 23.0884 18.5726 23.0129 18.5781 22.929C18.5837 22.8452 18.5865 22.7641 18.5865 22.6858V21.2066H19.2884V22.7836C19.2884 23.2059 19.1905 23.5163 18.9976 23.712C18.8046 23.9077 18.5054 24.0028 18.1056 24.0028C17.7057 24.0028 17.4065 23.9049 17.2108 23.712C17.0151 23.5163 16.92 23.2087 16.92 22.7836V21.2066H17.6274H17.6302Z" fill="white"/>
<path d="M22.8452 23.9245H21.9643L21.2905 22.8787V23.9245H20.583V21.2066H21.6819C21.8329 21.2066 21.9643 21.2289 22.079 21.2737C22.1908 21.3184 22.2859 21.3799 22.3586 21.4554C22.4313 21.5337 22.4872 21.6204 22.5236 21.7239C22.5599 21.8245 22.5795 21.9336 22.5795 22.0482C22.5795 22.2552 22.5292 22.4229 22.4285 22.5516C22.3279 22.6802 22.1824 22.7669 21.9867 22.8116L22.8424 23.9273L22.8452 23.9245ZM21.2905 22.4201H21.4247C21.5645 22.4201 21.6707 22.3922 21.7462 22.3335C21.8217 22.2747 21.8581 22.1936 21.8581 22.0846C21.8581 21.9755 21.8217 21.8944 21.7462 21.8357C21.6707 21.777 21.5645 21.749 21.4247 21.749H21.2905V22.4201Z" fill="white"/>
<path d="M25.4094 21.805H24.5705V22.258H25.3646V22.8563H24.5705V23.3261H25.4094V23.9245H23.863V21.2066H25.4094V21.805Z" fill="white"/>
<path d="M28.1329 21.9C28.0546 21.8385 27.9791 21.791 27.9008 21.7602C27.8225 21.7295 27.7498 21.7155 27.6771 21.7155C27.5848 21.7155 27.5121 21.7378 27.4534 21.7798C27.3947 21.8245 27.3667 21.8805 27.3667 21.9504C27.3667 21.9979 27.3807 22.037 27.4114 22.0706C27.4394 22.1014 27.4786 22.1293 27.5261 22.1517C27.5736 22.1741 27.6268 22.1936 27.6855 22.2104C27.7442 22.2272 27.8029 22.244 27.8588 22.2635C28.0909 22.3418 28.2587 22.4425 28.365 22.5711C28.4712 22.6997 28.5243 22.8675 28.5243 23.0744C28.5243 23.2142 28.502 23.3401 28.4544 23.4519C28.4069 23.5638 28.3398 23.6616 28.2475 23.7427C28.1552 23.8238 28.0462 23.8853 27.9148 23.9301C27.7833 23.9748 27.6351 23.9972 27.4702 23.9972C27.1262 23.9972 26.8075 23.8937 26.5139 23.6896L26.8158 23.1192C26.9221 23.2115 27.0256 23.2814 27.129 23.3289C27.2325 23.3736 27.3331 23.3988 27.4366 23.3988C27.5513 23.3988 27.6379 23.3736 27.6939 23.3205C27.7498 23.2674 27.7777 23.2087 27.7777 23.1415C27.7777 23.0996 27.7694 23.066 27.7554 23.0353C27.7414 23.0045 27.7162 22.9766 27.6827 22.9514C27.6491 22.9262 27.6044 22.9039 27.5513 22.8815C27.4981 22.8591 27.431 22.8368 27.3555 22.8088C27.2632 22.7808 27.1738 22.7473 27.0871 22.7137C27.0004 22.6802 26.9221 22.6326 26.8522 22.5739C26.7823 22.5152 26.7292 22.4425 26.6872 22.3558C26.6453 22.2691 26.6229 22.1573 26.6229 22.0231C26.6229 21.8888 26.6453 21.7658 26.69 21.6568C26.7348 21.5477 26.7963 21.4526 26.8774 21.3743C26.9585 21.296 27.0563 21.2345 27.1738 21.1926C27.2912 21.1506 27.4198 21.1283 27.5652 21.1283C27.6995 21.1283 27.8393 21.1478 27.9875 21.1842C28.1329 21.2205 28.2755 21.2765 28.4097 21.3492L28.1273 21.9H28.1329Z" fill="white"/>
<path d="M33.1325 21.9C33.0542 21.8385 32.9787 21.791 32.9004 21.7602C32.8221 21.7295 32.7494 21.7155 32.6767 21.7155C32.5844 21.7155 32.5117 21.7378 32.453 21.7798C32.3943 21.8245 32.3663 21.8805 32.3663 21.9504C32.3663 21.9979 32.3803 22.037 32.4111 22.0706C32.439 22.1014 32.4782 22.1293 32.5257 22.1517C32.5733 22.1741 32.6264 22.1936 32.6851 22.2104C32.7438 22.2272 32.8026 22.244 32.8585 22.2635C33.0906 22.3418 33.2583 22.4425 33.3646 22.5711C33.4708 22.6997 33.524 22.8675 33.524 23.0744C33.524 23.2142 33.5016 23.3401 33.4541 23.4519C33.4065 23.5638 33.3394 23.6616 33.2471 23.7427C33.1549 23.8238 33.0458 23.8853 32.9144 23.9301C32.783 23.9748 32.6348 23.9972 32.4698 23.9972C32.1259 23.9972 31.8071 23.8937 31.5135 23.6896L31.8155 23.1192C31.9217 23.2115 32.0252 23.2814 32.1287 23.3289C32.2321 23.3736 32.3328 23.3988 32.4362 23.3988C32.5509 23.3988 32.6376 23.3736 32.6935 23.3205C32.7494 23.2674 32.7774 23.2087 32.7774 23.1415C32.7774 23.0996 32.769 23.066 32.755 23.0353C32.741 23.0045 32.7159 22.9766 32.6823 22.9514C32.6488 22.9262 32.604 22.9039 32.5509 22.8815C32.4978 22.8591 32.4307 22.8368 32.3552 22.8088C32.2629 22.7808 32.1734 22.7473 32.0867 22.7137C32 22.6802 31.9217 22.6326 31.8518 22.5739C31.7819 22.5152 31.7288 22.4425 31.6869 22.3558C31.6449 22.2691 31.6225 22.1573 31.6225 22.0231C31.6225 21.8888 31.6449 21.7658 31.6897 21.6568C31.7344 21.5477 31.7959 21.4526 31.877 21.3743C31.9581 21.296 32.056 21.2345 32.1734 21.1926C32.2908 21.1506 32.4195 21.1283 32.5649 21.1283C32.6991 21.1283 32.8389 21.1478 32.9871 21.1842C33.1325 21.2205 33.2751 21.2765 33.4093 21.3492L33.1269 21.9H33.1325Z" fill="white"/>
<path d="M35.7218 21.805V23.9245H35.0144V21.805H34.4327V21.2066H36.3006V21.805H35.719H35.7218Z" fill="white"/>
<path d="M37.215 22.5655C37.215 22.3642 37.2513 22.1769 37.3268 22.0007C37.4023 21.8273 37.5058 21.6735 37.6372 21.5449C37.7686 21.4163 37.928 21.3128 38.1126 21.2401C38.2971 21.1674 38.4984 21.1311 38.7193 21.1311C38.9402 21.1311 39.1388 21.1674 39.3261 21.2401C39.5107 21.3128 39.6701 21.4135 39.8043 21.5449C39.9385 21.6735 40.042 21.8273 40.1174 22.0007C40.1929 22.1741 40.2293 22.3642 40.2293 22.5655C40.2293 22.7669 40.1929 22.957 40.1174 23.1304C40.042 23.3037 39.9385 23.4575 39.8043 23.5862C39.6701 23.7148 39.5107 23.8182 39.3261 23.8909C39.1416 23.9636 38.9402 24 38.7193 24C38.4984 24 38.2943 23.9636 38.1126 23.8909C37.928 23.8182 37.7714 23.7148 37.6372 23.5862C37.5058 23.4575 37.4023 23.3037 37.3268 23.1304C37.2513 22.957 37.215 22.7669 37.215 22.5655ZM37.9532 22.5655C37.9532 22.6746 37.9727 22.7725 38.0147 22.8647C38.0566 22.957 38.1098 23.0353 38.1797 23.1024C38.2496 23.1695 38.3307 23.2226 38.4229 23.259C38.5152 23.2954 38.6131 23.3149 38.7165 23.3149C38.82 23.3149 38.9179 23.2954 39.0101 23.259C39.1024 23.2226 39.1835 23.1695 39.2562 23.1024C39.3261 23.0353 39.382 22.957 39.424 22.8647C39.4659 22.7725 39.4855 22.6746 39.4855 22.5655C39.4855 22.4565 39.4659 22.3586 39.424 22.2663C39.382 22.1741 39.3261 22.0958 39.2562 22.0287C39.1863 21.9616 39.1024 21.9084 39.0101 21.8721C38.9179 21.8357 38.82 21.8161 38.7165 21.8161C38.6131 21.8161 38.5152 21.8357 38.4229 21.8721C38.3307 21.9084 38.2496 21.9616 38.1797 22.0287C38.1098 22.0958 38.0538 22.1741 38.0147 22.2663C37.9755 22.3586 37.9532 22.4565 37.9532 22.5655Z" fill="white"/>
<path d="M43.6547 23.9245H42.7739L42.1 22.8787V23.9245H41.3925V21.2066H42.4914C42.6424 21.2066 42.7739 21.2289 42.8885 21.2737C43.0003 21.3184 43.0954 21.3799 43.1681 21.4554C43.2408 21.5337 43.2967 21.6204 43.3331 21.7239C43.3694 21.8245 43.389 21.9336 43.389 22.0482C43.389 22.2552 43.3387 22.4229 43.238 22.5516C43.1374 22.6802 42.992 22.7669 42.7962 22.8116L43.6519 23.9273L43.6547 23.9245ZM42.1 22.4201H42.2342C42.374 22.4201 42.4802 22.3922 42.5557 22.3335C42.6312 22.2747 42.6676 22.1936 42.6676 22.0846C42.6676 21.9755 42.6312 21.8944 42.5557 21.8357C42.4802 21.777 42.374 21.749 42.2342 21.749H42.1V22.4201Z" fill="white"/>
<path d="M46.3391 23.4519H45.3296L45.1675 23.9245H44.4125L45.4471 21.2066H46.2188L47.2534 23.9245H46.4985L46.3363 23.4519H46.3391ZM46.1517 22.9151L45.8358 22.0091L45.5198 22.9151H46.1545H46.1517Z" fill="white"/>
<path d="M49.6078 22.4033H51.0115C51.0115 22.5488 51.0059 22.6774 50.9948 22.7976C50.9836 22.9151 50.9584 23.0241 50.9221 23.1248C50.8717 23.2674 50.8018 23.3932 50.7151 23.5023C50.6285 23.6113 50.5278 23.7036 50.4103 23.7763C50.2929 23.849 50.1643 23.9049 50.0273 23.9441C49.8875 23.9832 49.742 24.0028 49.5883 24.0028C49.3757 24.0028 49.1828 23.9692 49.0094 23.8993C48.8361 23.8294 48.6851 23.7316 48.5592 23.6057C48.4334 23.4799 48.3383 23.3289 48.2684 23.1527C48.1985 22.9766 48.165 22.7808 48.165 22.5655C48.165 22.3502 48.1985 22.1601 48.2684 21.9839C48.3383 21.8078 48.4334 21.6568 48.5592 21.5309C48.6851 21.4051 48.8389 21.31 49.015 21.2401C49.194 21.1702 49.3925 21.1367 49.6106 21.1367C49.893 21.1367 50.1419 21.1982 50.3572 21.3212C50.5725 21.4442 50.7403 21.6344 50.8661 21.8916L50.195 22.1685C50.1335 22.0203 50.0524 21.9112 49.9518 21.8469C49.8511 21.7826 49.7393 21.749 49.6106 21.749C49.5044 21.749 49.4093 21.7686 49.3226 21.8078C49.2359 21.8469 49.1632 21.9028 49.1017 21.9783C49.0402 22.051 48.9927 22.1405 48.9563 22.244C48.9228 22.3474 48.9032 22.4621 48.9032 22.5907C48.9032 22.7053 48.9172 22.8144 48.9479 22.9123C48.9787 23.0101 49.0234 23.0968 49.0821 23.1695C49.1409 23.2422 49.2164 23.2981 49.3058 23.3373C49.3953 23.3764 49.4988 23.396 49.6162 23.396C49.6861 23.396 49.7532 23.3876 49.8175 23.3736C49.8819 23.3569 49.9406 23.3317 49.9937 23.2981C50.044 23.2646 50.0888 23.217 50.1223 23.1639C50.1559 23.108 50.1783 23.0409 50.1922 22.9626H49.6106V22.4145L49.6078 22.4033Z" fill="white"/>
<path d="M53.7267 21.805H52.8878V22.258H53.6819V22.8563H52.8878V23.3261H53.7267V23.9245H52.1804V21.2066H53.7267V21.805Z" fill="white"/>
</g>
<defs>
<clipPath id="clip0_380_1202">
<rect width="54.6718" height="24" fill="white"/>
</clipPath>
</defs>
</svg>
